#!OML:ASF E:\Style6\Style6.ASF
:FULLY-SPECIFIED
:DEGREES
3469
root 0.78323 16.2252 -0.682993 -9.15078 -1.9756 5.97398
lowerback 16.6056 -2.88522 8.22924
upperback 15.4818 -3.19781 5.40182
thorax 7.57322 -1.18892 1.5752
lowerneck 12.1161 2.93285 1.59198
upperneck -9.38774 1.19282 -26.6479
head -4.76469 2.2943 -9.03051
rclavicle 5.725e-014 1.90833e-014
rhumerus 2.28253 -19.8365 -68.9906
rradius 70.1732
rwrist 43.9829
rhand -21.4483 8.32476
rfingers 7.12502
rthumb 4.94152 -21.5976
lclavicle 5.725e-014 1.90833e-014
lhumerus -18.9601 19.7366 76.5703
lradius 48.6218
lwrist -18.2895
lhand -30.7893 31.0062
lfingers 7.12502
lthumb -4.07972 60.9469
rfemur -22.8472 -11.8384 7.86381
rtibia 62.3742
rfoot -22.7644 1.07126
rtoes -19.1956
lfemur -20.1081 15.2183 -24.9422
ltibia 57.8267
lfoot -22.1705 0.373569
ltoes -17.975
3470
root 0.784624 16.2216 -0.680258 -9.22594 -2.06127 6.04482
lowerback 16.6643 -2.92828 8.24359
upperback 15.4687 -3.24318 5.35412
thorax 7.52171 -1.20928 1.52231
lowerneck 12.1854 2.91618 1.65552
upperneck -9.47756 1.14438 -26.7343
head -4.81146 2.28486 -9.07805
rclavicle -6.36111e-015 -5.725e-014
rhumerus 2.15536 -19.6808 -69.3139
rradius 70.4966
rwrist 44.1851
rhand -21.7428 8.3566
rfingers 7.12502
rthumb 4.6571 -21.5722
lclavicle -6.36111e-015 -5.725e-014
lhumerus -18.6767 20.2363 76.4277
lradius 47.6472
lwrist -18.5508
lhand -30.2497 31.1452
lfingers 7.12502
lthumb -3.5586 61.0952
rfemur -22.8202 -11.7775 7.77813
rtibia 62.4393
rfoot -22.784 1.12254
rtoes -18.924
lfemur -20.0042 15.3024 -24.9838
ltibia 57.8352
lfoot -22.2219 0.404461
ltoes -17.9285
3471
root 0.786763 16.2183 -0.676185 -9.26015 -2.14041 6.17452
lowerback 16.6802 -2.95899 8.21947
upperback 15.4412 -3.28022 5.29902
thorax 7.47568 -1.22836 1.47973
lowerneck 12.2142 2.89308 1.61695
upperneck -9.52924 1.08896 -26.7331
head -4.84191 2.2647 -9.07109
rclavicle -9.22361e-014 -7.95139e-014
rhumerus 1.94202 -19.4878 -69.5629
rradius 70.8821
rwrist 44.3623
rhand -21.9325 8.47276
rfingers 7.12502
rthumb 4.47392 -21.46
lclavicle -9.22361e-014 -7.95139e-014
lhumerus -18.4106 20.7733 76.2974
lradius 46.6817
lwrist -18.8344
lhand -29.9125 30.9834
lfingers 7.12502
lthumb -3.23295 60.9386
rfemur -22.8415 -11.738 7.62395
rtibia 62.5204
rfoot -22.831 1.0897
rtoes -19.5247
lfemur -19.9472 15.3917 -25.1102
ltibia 57.8283
lfoot -22.2347 0.400363
ltoes -17.754
3472
root 0.789482 16.2148 -0.672824 -9.30929 -2.21605 6.23959
lowerback 16.7423 -3.01921 8.26047
upperback 15.4068 -3.34314 5.26783
thorax 7.39742 -1.25711 1.4323
lowerneck 12.1713 2.92405 1.45142
upperneck -9.51979 1.11499 -26.6528
head -4.82958 2.27476 -9.01112
rclavicle 2.22639e-014 -5.08889e-014
rhumerus 1.72489 -19.1951 -69.7785
rradius 71.3052
rwrist 44.6031
rhand -22.1663 8.40184
rfingers 7.12502
rthumb 4.24817 -21.5355
lclavicle 2.22639e-014 -5.08889e-014
lhumerus -18.2133 21.1933 76.1685
lradius 45.7481
lwrist -18.8751
lhand -30.1459 30.6444
lfingers 7.12502
lthumb -3.45833 60.5961
rfemur -22.8448 -11.7196 7.53853
rtibia 62.6094
rfoot -22.9384 1.00345
rtoes -20.4483
lfemur -19.8789 15.4676 -25.1673
ltibia 57.8244
lfoot -22.2441 0.444073
ltoes -17.8591
3473
root 0.791992 16.2088 -0.669563 -9.34001 -2.24712 6.49424
lowerback 16.7853 -3.07587 8.10343
upperback 15.3749 -3.4223 5.16674
thorax 7.32976 -1.30719 1.41835
lowerneck 12.107 2.97053 1.33686
upperneck -9.56004 1.16126 -26.5871
head -4.82404 2.29611 -8.96846
rclavicle 4.77083e-015 -9.22361e-014
rhumerus 1.64347 -19.0157 -70.1166
rradius 71.6309
rwrist 45.053
rhand -22.3442 8.64169
rfingers 7.12502
rthumb 4.07636 -21.2991
lclavicle 4.77083e-015 -9.22361e-014
lhumerus -18.0707 21.588 75.9733
lradius 45.0309
lwrist -18.9447
lhand -30.3249 30.3544
lfingers 7.12502
lthumb -3.63118 60.3032
rfemur -22.8963 -11.752 7.21271
rtibia 62.7209
rfoot -22.9525 1.2107
rtoes -20.0144
lfemur -19.8319 15.4893 -25.4542
ltibia 57.8049
lfoot -22.2501 0.553276
ltoes -18.0284
3474
root 0.793053 16.2043 -0.666553 -9.41931 -2.31639 6.61746
lowerback 16.8835 -3.10366 8.05165
upperback 15.3534 -3.4484 5.11095
thorax 7.24861 -1.32424 1.39292
lowerneck 12.0497 2.96414 1.32516
upperneck -9.56792 1.15408 -26.5592
head -4.81684 2.28737 -8.95375
rclavicle 9.54166e-015 9.85972e-014
rhumerus 1.55823 -18.9869 -70.4073
rradius 71.8986
rwrist 45.6266
rhand -22.4808 8.9849
rfingers 7.12502
rthumb 3.94449 -20.9583
lclavicle 9.54166e-015 9.85972e-014
lhumerus -17.8844 21.831 75.8695
lradius 44.4283
lwrist -18.7774
lhand -30.7754 30.4623
lfingers 7.12502
lthumb -4.06626 60.4033
rfemur -22.8771 -11.7159 7.05083
rtibia 62.8138
rfoot -22.9656 1.34937
rtoes -19.7398
lfemur -19.7254 15.5658 -25.5555
ltibia 57.7985
lfoot -22.2763 0.577072
ltoes -17.9249
